#!OML:ASF H:\Terrain\Patient Classification 1\Terrain2\Thursday\justin.ASF
:FULLY-SPECIFIED
:DEGREES
2883
root 21.4898 20.9341 -0.779504 1064.36 266.186 379.113
lowerback 7.6075 -0.360828 -1.38448
upperback 2.76598 -0.62407 2.11343
thorax -1.3688 -0.360759 3.01406
lowerneck -14.6437 -0.226707 -8.85001
upperneck 37.8768 -1.21499 5.19571
head 15.9858 -1.60464 3.48093
rclavicle 1.27222e-014 -1.90833e-014
rhumerus -29.4966 -0.585583 -84.7362
rradius 36.7737
rwrist -15.2919
rhand -20.4941 12.0518
rfingers 7.12502
rthumb 5.86282 -17.8471
lclavicle 1.27222e-014 -1.90833e-014
lhumerus -26.6749 0.400408 85.0556
lradius 39.2344
lwrist 7.15441
lhand -20.92 21.5681
lfingers 7.12502
lthumb 5.45156 51.478
rfemur -26.0206 -0.638021 23.4337
rtibia 34.7676
rfoot -7.97327 5.75813
rtoes 12.4621
lfemur -4.09525 0.947551 -19.1881
ltibia 21.7598
lfoot -15.058 -11.6345
ltoes 20.4017
2884
root 21.3888 20.903 -0.805639 1061.98 266.259 381.2
lowerback 7.71632 -0.467788 -1.43225
upperback 2.80264 -0.771614 2.31551
thorax -1.37818 -0.437822 3.26481
lowerneck -14.6542 -0.191477 -9.21758
upperneck 38.0042 -1.11033 5.32201
head 16.0468 -1.60695 3.62428
rclavicle 3.27995e-015 -8.34896e-015
rhumerus -29.5782 -0.343985 -84.6153
rradius 36.3747
rwrist -15.2058
rhand -20.5268 12.0315
rfingers 7.12502
rthumb 5.83126 -17.8683
lclavicle 3.27995e-015 -8.34896e-015
lhumerus -26.8771 1.20093 85.2035
lradius 38.7893
lwrist 6.35956
lhand -20.712 21.1804
lfingers 7.12502
lthumb 5.65244 51.085
rfemur -25.2892 -0.736547 23.6807
rtibia 35.0193
rfoot -8.23224 5.88231
rtoes 13.356
lfemur -3.41999 1.04278 -18.9572
ltibia 21.9071
lfoot -15.5721 -12.0504
ltoes 20.7863
2885
root 21.2852 20.8775 -0.826187 1064.32 266.45 378.78
lowerback 7.55787 -0.563105 -1.72407
upperback 2.7925 -0.916241 2.39432
thorax -1.28477 -0.512322 3.52132
lowerneck -14.6974 -0.106779 -9.32183
upperneck 38.1577 -0.92241 5.22176
head 16.1175 -1.56778 3.6357
rclavicle -2.93207e-014 1.63003e-014
rhumerus -29.6 -0.199078 -84.5002
rradius 35.8052
rwrist -15.0908
rhand -20.5412 12.2092
rfingers 7.12502
rthumb 5.81731 -17.691
lclavicle -2.93207e-014 1.63003e-014
lhumerus -26.9666 1.8446 85.3431
lradius 38.1766
lwrist 5.5242
lhand -20.3994 20.7446
lfingers 7.12502
lthumb 5.95426 50.6409
rfemur -24.7978 -1.25614 23.7065
rtibia 35.2603
rfoot -9.26838 5.91985
rtoes 9.72601
lfemur -2.91802 0.59356 -19.1473
ltibia 21.9961
lfoot -15.8482 -12.1818
ltoes 22.1368
2886
root 21.1809 20.8592 -0.841205 1066.38 266.481 376.64
lowerback 7.32635 -0.534844 -1.72884
upperback 2.82388 -0.877339 2.39182
thorax -1.12698 -0.495353 3.51355
lowerneck -14.6034 -0.0298847 -9.13096
upperneck 38.1493 -0.750003 4.89915
head 16.0713 -1.51228 3.4863
rclavicle 1.2921e-015 2.38542e-015
rhumerus -29.5538 -0.589019 -84.3212
rradius 35.154
rwrist -14.9567
rhand -20.5349 12.3561
rfingers 7.12502
rthumb 5.8234 -17.5439
lclavicle 1.2921e-015 2.38542e-015
lhumerus -27.0976 1.80913 85.6241
lradius 37.7975
lwrist 5.13971
lhand -20.2672 20.5568
lfingers 7.12502
lthumb 6.08183 50.4495
rfemur -24.3235 -1.34825 23.7314
rtibia 35.4252
rfoot -10.2739 5.72032
rtoes 7.46864
lfemur -2.40451 0.128646 -19.3076
ltibia 22.0546
lfoot -15.7786 -12.1213
ltoes 23.9965
2887
root 21.0745 20.8501 -0.861461 1063.72 266.489 379.173
lowerback 7.15575 -0.580599 -1.55219
upperback 2.86576 -0.926895 2.57784
thorax -0.98522 -0.524355 3.6071
lowerneck -14.6646 0.0222722 -9.39623
upperneck 38.2969 -0.568413 4.84205
head 16.147 -1.49202 3.5447
rclavicle -2.31584e-014 7.95139e-015
rhumerus -29.4955 -0.840995 -83.9943
rradius 34.6065
rwrist -14.6655
rhand -20.4096 12.3595
rfingers 7.12502
rthumb 5.94441 -17.5371
lclavicle -2.31584e-014 7.95139e-015
lhumerus -27.4897 1.91365 85.934
lradius 37.7584
lwrist 4.9581
lhand -19.8581 20.5389
lfingers 7.12502
lthumb 6.47676 50.4199
rfemur -23.7471 -1.15783 23.8615
rtibia 35.4086
rfoot -10.6853 6.01418
rtoes 11.7984
lfemur -1.8931 0.115622 -19.1165
ltibia 22.179
lfoot -15.8389 -12.3336
ltoes 24.4757
2888
root 20.9687 20.8401 -0.881298 1056.23 266.491 386.64
lowerback 6.93988 -0.695701 -1.13053
upperback 2.85104 -1.05288 2.8301
thorax -0.874313 -0.589302 3.63593
lowerneck -14.8015 0.0235206 -9.6596
upperneck 38.5442 -0.508247 4.88381
head 16.3061 -1.516 3.6301
rclavicle 7.45443e-015 -7.95139e-016
rhumerus -29.5168 -1.0305 -83.7338
rradius 34.1391
rwrist -14.3722
rhand -20.0639 12.2384
rfingers 7.12502
rthumb 6.27808 -17.6486
lclavicle 7.45443e-015 -7.95139e-016
lhumerus -27.787 1.79434 86.1307
lradius 37.505
lwrist 5.06361
lhand -19.8449 20.5743
lfingers 7.12502
lthumb 6.48952 50.4548
rfemur -23.305 -1.40058 24.3515
rtibia 35.2931
rfoot -11.1923 6.34047
rtoes 13.211
lfemur -1.54645 0.035005 -18.6158
ltibia 22.3405
lfoot -16.2822 -12.1664
ltoes 23.0536
2889
root 20.8669 20.8341 -0.899291 1049.77 266.44 393.034
lowerback 6.81731 -0.733879 -0.639211
upperback 2.83238 -1.07397 2.92986
thorax -0.831483 -0.59857 3.46078
lowerneck -14.7452 0.0254779 -9.51465
upperneck 38.5316 -0.521702 4.7869
head 16.2864 -1.5135 3.55728
rclavicle -1.45113e-014 -8.74653e-015
rhumerus -29.6448 -1.3655 -83.6946
rradius 33.7603
rwrist -14.3702
rhand -19.934 12.2244
rfingers 7.12502
rthumb 6.40356 -17.6588
lclavicle -1.45113e-014 -8.74653e-015
lhumerus -27.8719 1.60931 86.2674
lradius 36.9166
lwrist 5.0119
lhand -20.379 20.6375
lfingers 7.12502
lthumb 5.97392 50.5333
rfemur -22.8424 -1.51308 24.8494
rtibia 35.2281
rfoot -11.8289 5.93513
rtoes 12.1529
lfemur -1.09353 -0.860138 -18.1558
ltibia 22.5261
lfoot -16.1346 -12.0795
ltoes 27.5808
2890
root 20.7698 20.8158 -0.919816 1048.13 266.457 394.605
lowerback 6.78705 -0.755357 -0.485336
upperback 2.76895 -1.09032 2.94889
thorax -0.88161 -0.604232 3.39486
lowerneck -14.6798 0.0798686 -9.38831
upperneck 38.5449 -0.444488 4.66875
head 16.2684 -1.48142 3.49442
rclavicle -1.26228e-014 -1.98785e-014
rhumerus -29.8346 -1.52124 -83.7055
rradius 33.3971
rwrist -14.4728
rhand -20.0274 12.0888
rfingers 7.12502
rthumb 6.31337 -17.7971
lclavicle -1.26228e-014 -1.98785e-014
lhumerus -28.2037 1.74253 86.3206
lradius 36.5617
lwrist 4.62008
lhand -20.3281 20.6833
lfingers 7.12502
lthumb 6.0231 50.5777
rfemur -22.3053 -1.4356 25.0071
rtibia 35.0486
rfoot -12.0643 5.65686
rtoes 13.2242
lfemur -0.829742 -1.35015 -18.0412
ltibia 23.0244
lfoot -16.1626 -11.9976
ltoes 30.0796
2891
root 20.6767 20.7757 -0.939988 1045.46 266.401 397.291
lowerback 6.71313 -0.819277 -0.271075
upperback 2.68293 -1.15952 3.047
thorax -0.927088 -0.636895 3.38014
lowerneck -14.7208 0.134875 -9.37721
upperneck 38.6397 -0.339694 4.59198
head 16.3177 -1.45377 3.4792
rclavicle -3.97569e-016 -3.18055e-015
rhumerus -29.9623 -1.73879 -83.587
rradius 33.0408
rwrist -14.3473
rhand -20.044 11.9809
rfingers 7.12502
rthumb 6.29732 -17.9055
lclavicle -3.97569e-016 -3.18055e-015
lhumerus -28.534 2.31682 86.313
lradius 36.1774
lwrist 3.80927
lhand -19.6605 20.4651
lfingers 7.12502
lthumb 6.66757 50.3401
rfemur -21.9106 -1.48383 25.2892
rtibia 34.9131
rfoot -12.2407 5.73309
rtoes 14.2773
lfemur -1.01798 0.189143 -17.9215
ltibia 23.6319
lfoot -17.4032 -10.6544
ltoes 14.7238
